<svg width="230" height="206" viewBox="0 0 230 206" fill="none" xmlns="http://www.w3.org/2000/svg">
<g filter="url(#filter0_d_6_19)">
<circle cx="115.5" cy="141.5" r="57.5" fill="white"/>
<circle cx="115.5" cy="141.5" r="57" stroke="#515151"/>
</g>
<path d="M89.325 151C94.275 151 98.4 147.075 98.4 141.95C98.4 136.975 94.3 132.9 89.325 132.9C84.325 132.9 80.275 137.025 80.275 141.95C80.275 146.975 84.4 151 89.325 151ZM87.725 137.225L89.325 133.525L90.925 137.225C90.375 137.05 89.85 136.95 89.325 136.95C88.8 136.95 88.25 137.05 87.725 137.225ZM84.825 139.75L83.375 136L87.1 137.475C86.1 137.95 85.35 138.725 84.825 139.75ZM93.8 139.75C93.3 138.725 92.55 137.95 91.525 137.475L95.275 136L93.8 139.75ZM89.325 146.325C86.9 146.325 84.95 144.3 84.95 141.95C84.95 139.6 86.9 137.575 89.325 137.575C91.725 137.575 93.7 139.6 93.7 141.95C93.7 144.3 91.725 146.325 89.325 146.325ZM84.575 143.55L80.9 141.95L84.575 140.35C84.4 140.825 84.325 141.375 84.325 141.95C84.325 142.575 84.4 143.1 84.575 143.55ZM94.05 143.55C94.225 143.025 94.325 142.5 94.325 141.95C94.325 141.4 94.225 140.875 94.05 140.35L97.75 141.95L94.05 143.55ZM83.375 147.9L84.825 144.175C85.35 145.175 86.1 145.925 87.1 146.45L83.375 147.9ZM95.275 147.9L91.525 146.45C92.55 145.95 93.3 145.175 93.8 144.175L95.275 147.9ZM89.325 150.375L87.725 146.7C88.225 146.875 88.75 146.95 89.325 146.95C89.925 146.95 90.45 146.875 90.925 146.7L89.325 150.375ZM101.279 151.75C101.712 152.633 102.237 153.367 102.854 153.95C103.487 154.55 104.179 154.992 104.929 155.275C105.695 155.558 106.487 155.7 107.304 155.7C108.104 155.7 108.879 155.558 109.629 155.275C110.379 154.992 111.07 154.55 111.704 153.95C112.337 153.367 112.862 152.633 113.279 151.75L114.329 152.3C113.795 153.35 113.179 154.217 112.479 154.9C111.795 155.6 111.02 156.125 110.154 156.475C109.304 156.825 108.354 157 107.304 157C106.27 157 105.32 156.825 104.454 156.475C103.604 156.125 102.829 155.6 102.129 154.9C101.429 154.217 100.804 153.35 100.254 152.3L101.279 151.75ZM116.513 151.75C116.946 152.633 117.471 153.367 118.088 153.95C118.721 154.55 119.413 154.992 120.163 155.275C120.93 155.558 121.721 155.7 122.538 155.7C123.338 155.7 124.113 155.558 124.863 155.275C125.613 154.992 126.305 154.55 126.938 153.95C127.571 153.367 128.096 152.633 128.513 151.75L129.563 152.3C129.03 153.35 128.413 154.217 127.713 154.9C127.03 155.6 126.255 156.125 125.388 156.475C124.538 156.825 123.588 157 122.538 157C121.505 157 120.555 156.825 119.688 156.475C118.838 156.125 118.063 155.6 117.363 154.9C116.663 154.217 116.038 153.35 115.488 152.3L116.513 151.75ZM140.472 151C145.422 151 149.547 147.075 149.547 141.95C149.547 136.975 145.447 132.9 140.472 132.9C135.472 132.9 131.422 137.025 131.422 141.95C131.422 146.975 135.547 151 140.472 151ZM138.872 137.225L140.472 133.525L142.072 137.225C141.522 137.05 140.997 136.95 140.472 136.95C139.947 136.95 139.397 137.05 138.872 137.225ZM135.972 139.75L134.522 136L138.247 137.475C137.247 137.95 136.497 138.725 135.972 139.75ZM144.947 139.75C144.447 138.725 143.697 137.95 142.672 137.475L146.422 136L144.947 139.75ZM140.472 146.325C138.047 146.325 136.097 144.3 136.097 141.95C136.097 139.6 138.047 137.575 140.472 137.575C142.872 137.575 144.847 139.6 144.847 141.95C144.847 144.3 142.872 146.325 140.472 146.325ZM135.722 143.55L132.047 141.95L135.722 140.35C135.547 140.825 135.472 141.375 135.472 141.95C135.472 142.575 135.547 143.1 135.722 143.55ZM145.197 143.55C145.372 143.025 145.472 142.5 145.472 141.95C145.472 141.4 145.372 140.875 145.197 140.35L148.897 141.95L145.197 143.55ZM134.522 147.9L135.972 144.175C136.497 145.175 137.247 145.925 138.247 146.45L134.522 147.9ZM146.422 147.9L142.672 146.45C143.697 145.95 144.447 145.175 144.947 144.175L146.422 147.9ZM140.472 150.375L138.872 146.7C139.372 146.875 139.897 146.95 140.472 146.95C141.072 146.95 141.597 146.875 142.072 146.7L140.472 150.375Z" fill="black"/>
<path d="M0 3C0 1.34315 1.34315 0 3 0H227C228.657 0 230 1.34315 230 3V57C230 58.6569 228.657 60 227 60H134.507C133.854 60 133.218 60.2134 132.697 60.6078L116.81 72.63C115.739 73.4404 114.261 73.4404 113.19 72.63L97.3031 60.6078C96.782 60.2134 96.1463 60 95.4928 60H3C1.34314 60 0 58.6569 0 57V3Z" fill="#222222" fill-opacity="0.9"/>
<path d="M28.9854 39L28.9365 38.0723L30.4258 37.7305C30.4583 37.6654 30.4827 37.5026 30.499 37.2422C30.5316 36.9655 30.5479 36.5749 30.5479 36.0703C30.5641 35.5658 30.5723 34.9229 30.5723 34.1416V29.5518C30.5723 28.7542 30.5641 28.1032 30.5479 27.5986C30.5479 27.0778 30.5316 26.6872 30.499 26.4268C30.4827 26.1501 30.4583 25.9873 30.4258 25.9385L28.9365 25.5967L28.9854 24.6689H34.2344L34.3076 25.5967L32.7939 25.9385C32.7614 25.9873 32.7288 26.1501 32.6963 26.4268C32.68 26.6872 32.6637 27.0778 32.6475 27.5986C32.6475 28.1032 32.6475 28.7542 32.6475 29.5518V34.1416C32.6475 34.9229 32.6475 35.5658 32.6475 36.0703C32.6637 36.5749 32.68 36.9655 32.6963 37.2422C32.7288 37.5026 32.7614 37.6654 32.7939 37.7305L34.3076 38.0723L34.2344 39H28.9854ZM20.1963 39L20.123 38.0723L21.6367 37.7305C21.6693 37.6491 21.6855 37.4619 21.6855 37.1689C21.7018 36.876 21.71 36.4772 21.71 35.9727C21.7262 35.4681 21.7344 34.8577 21.7344 34.1416V29.5518C21.7344 28.8193 21.7262 28.2008 21.71 27.6963C21.71 27.1755 21.7018 26.7686 21.6855 26.4756C21.6855 26.1826 21.6693 26.0036 21.6367 25.9385L20.123 25.5967L20.1963 24.6689H25.3965L25.4453 25.5967L23.9561 25.9385C23.9235 25.9873 23.891 26.1501 23.8584 26.4268C23.8421 26.6872 23.8258 27.0778 23.8096 27.5986C23.8096 28.1032 23.8096 28.7542 23.8096 29.5518V34.1416C23.8096 34.9229 23.8096 35.5658 23.8096 36.0703C23.8258 36.5749 23.8421 36.9655 23.8584 37.2422C23.891 37.5026 23.9235 37.6654 23.9561 37.7305L25.4453 38.0723L25.3965 39H20.1963ZM23.5166 32.3594V30.9189C23.8421 30.9352 24.3141 30.9515 24.9326 30.9678C25.5674 30.984 26.3324 30.9922 27.2275 30.9922C28.1064 30.9922 28.8551 30.984 29.4736 30.9678C30.0921 30.9515 30.5479 30.9352 30.8408 30.9189V32.3594C30.4827 32.3268 30.0189 32.3024 29.4492 32.2861C28.8796 32.2699 28.139 32.2617 27.2275 32.2617C26.2835 32.2617 25.5186 32.2699 24.9326 32.2861C24.3467 32.3024 23.8747 32.3268 23.5166 32.3594ZM41.4609 39.1953C40.5169 39.1953 39.6624 38.9837 38.8975 38.5605C38.1488 38.1374 37.5465 37.5352 37.0908 36.7539C36.6514 35.9564 36.4316 35.0205 36.4316 33.9463C36.4316 32.7907 36.6676 31.7897 37.1396 30.9434C37.6117 30.097 38.2301 29.446 38.9951 28.9902C39.7601 28.5182 40.582 28.2904 41.4609 28.3066C42.7305 28.3229 43.7233 28.7461 44.4395 29.5762C45.1556 30.4062 45.5137 31.5781 45.5137 33.0918V33.5312H38.0186V32.457H43.9023L43.6338 32.7744V32.2617C43.6338 31.3177 43.4222 30.5934 42.999 30.0889C42.5758 29.5843 41.998 29.332 41.2656 29.332C40.8099 29.332 40.3704 29.4704 39.9473 29.7471C39.5241 30.0075 39.1823 30.4144 38.9219 30.9678C38.6615 31.5049 38.5312 32.1885 38.5312 33.0186V33.3115C38.5312 34.6462 38.8568 35.6878 39.5078 36.4365C40.1751 37.1852 41.0296 37.5596 42.0713 37.5596C42.641 37.5596 43.1536 37.4456 43.6094 37.2178C44.0651 36.9899 44.5046 36.6237 44.9277 36.1191L45.5381 36.6807C45.0824 37.527 44.5046 38.1618 43.8047 38.585C43.1048 38.9919 42.3236 39.1953 41.4609 39.1953ZM47.0762 39L47.0273 38.0967L48.6143 37.7549C48.6468 37.5921 48.6712 37.3236 48.6875 36.9492C48.7038 36.5749 48.7119 36.0785 48.7119 35.46C48.7282 34.8415 48.7363 34.0846 48.7363 33.1895V30.1377C48.7363 29.5192 48.7282 28.8844 48.7119 28.2334C48.7119 27.5824 48.7038 26.972 48.6875 26.4023C48.6875 25.8164 48.6794 25.32 48.6631 24.9131C48.6631 24.4899 48.6549 24.2132 48.6387 24.083L46.832 23.8389L46.7832 23.0576L50.2744 22.0566L50.7383 22.3984C50.722 23.082 50.7057 23.7656 50.6895 24.4492C50.6732 25.1328 50.6569 25.8896 50.6406 26.7197C50.6406 27.5498 50.6406 28.5508 50.6406 29.7227L50.6162 33.6533C50.6162 34.6136 50.6243 35.4844 50.6406 36.2656C50.6732 37.0306 50.7057 37.527 50.7383 37.7549L52.3252 38.0967L52.2764 39H47.0762ZM53.6436 39L53.5947 38.0967L55.1816 37.7549C55.2142 37.5921 55.2386 37.3236 55.2549 36.9492C55.2712 36.5749 55.2793 36.0785 55.2793 35.46C55.2956 34.8415 55.3037 34.0846 55.3037 33.1895V30.1377C55.3037 29.5192 55.2956 28.8844 55.2793 28.2334C55.2793 27.5824 55.2712 26.972 55.2549 26.4023C55.2549 25.8164 55.2467 25.32 55.2305 24.9131C55.2305 24.4899 55.2223 24.2132 55.2061 24.083L53.3994 23.8389L53.3506 23.0576L56.8418 22.0566L57.3057 22.3984C57.2894 23.082 57.2731 23.7656 57.2568 24.4492C57.2406 25.1328 57.2243 25.8896 57.208 26.7197C57.208 27.5498 57.208 28.5508 57.208 29.7227L57.1836 33.6533C57.1836 34.6136 57.1917 35.4844 57.208 36.2656C57.2406 37.0306 57.2731 37.527 57.3057 37.7549L58.8926 38.0967L58.8438 39H53.6436ZM65.8018 39.1953C64.7438 39.1953 63.8161 38.9674 63.0186 38.5117C62.2373 38.056 61.627 37.4212 61.1875 36.6074C60.748 35.7773 60.5283 34.8333 60.5283 33.7754C60.5283 32.6686 60.7725 31.7083 61.2607 30.8945C61.749 30.0807 62.4001 29.446 63.2139 28.9902C64.0277 28.5345 64.9229 28.3066 65.8994 28.3066C66.9085 28.3066 67.7874 28.5345 68.5361 28.9902C69.3011 29.4297 69.887 30.0563 70.2939 30.8701C70.7171 31.6676 70.9287 32.6035 70.9287 33.6777C70.9287 34.7031 70.7008 35.6309 70.2451 36.4609C69.7894 37.291 69.1709 37.9583 68.3896 38.4629C67.6247 38.9512 66.762 39.1953 65.8018 39.1953ZM66.0459 38.0479C66.5993 38.0479 67.0794 37.8851 67.4863 37.5596C67.8932 37.2178 68.2106 36.7539 68.4385 36.168C68.6663 35.5658 68.7803 34.8822 68.7803 34.1172C68.7803 32.7174 68.4873 31.5863 67.9014 30.7236C67.3317 29.8447 66.5749 29.4053 65.6309 29.4053C64.752 29.4053 64.0439 29.7715 63.5068 30.5039C62.986 31.2363 62.7256 32.2048 62.7256 33.4092C62.7256 34.3206 62.8639 35.1263 63.1406 35.8262C63.4336 36.526 63.8324 37.0713 64.3369 37.4619C64.8415 37.8525 65.4111 38.0479 66.0459 38.0479ZM77.8135 39L77.7646 38.0723L79.2539 37.7305C79.2865 37.6491 79.3027 37.4619 79.3027 37.1689C79.319 36.876 79.3271 36.4772 79.3271 35.9727C79.3434 35.4681 79.3516 34.8577 79.3516 34.1416V29.5518C79.3516 28.8193 79.3434 28.2008 79.3271 27.6963C79.3271 27.1755 79.319 26.7686 79.3027 26.4756C79.3027 26.1826 79.2865 26.0036 79.2539 25.9385L77.7646 25.5967L77.8135 24.6689H83.0137L83.0625 25.5967L81.5732 25.9385C81.5407 25.9873 81.5081 26.1501 81.4756 26.4268C81.4593 26.6872 81.443 27.0778 81.4268 27.5986C81.4268 28.1032 81.4268 28.7542 81.4268 29.5518V34.1416C81.4268 34.9229 81.4268 35.5658 81.4268 36.0703C81.443 36.5749 81.4593 36.9655 81.4756 37.2422C81.5081 37.5026 81.5407 37.6654 81.5732 37.7305L83.0625 38.0723L83.0137 39H77.8135ZM87.042 21.959C87.4489 21.959 87.7826 22.1055 88.043 22.3984C88.3197 22.6914 88.458 23.1553 88.458 23.79C88.458 24.0342 88.4173 24.3597 88.3359 24.7666C88.2708 25.1572 88.1813 25.5804 88.0674 26.0361C87.9697 26.4756 87.8639 26.915 87.75 27.3545C87.6361 27.7777 87.5384 28.1602 87.457 28.502H86.627C86.5456 28.1602 86.4479 27.7777 86.334 27.3545C86.2201 26.915 86.1061 26.4756 85.9922 26.0361C85.8945 25.5804 85.805 25.1572 85.7236 24.7666C85.6585 24.3597 85.626 24.0342 85.626 23.79C85.626 23.1553 85.7562 22.6914 86.0166 22.3984C86.2933 22.1055 86.6351 21.959 87.042 21.959ZM90.6797 39L90.6309 38.1211L92.1445 37.7549C92.1608 37.641 92.1689 37.4945 92.1689 37.3154C92.1852 37.1364 92.2015 36.876 92.2178 36.5342C92.234 36.1924 92.2422 35.7285 92.2422 35.1426L92.2666 33.2383C92.2829 32.8965 92.2747 32.5465 92.2422 32.1885C92.2259 31.8304 92.2015 31.4967 92.1689 31.1875C92.1364 30.862 92.1038 30.6016 92.0713 30.4062L90.5088 30.0645V29.2588L93.7803 28.3555L94.1953 28.7461L94.0732 30.0645L94.1465 30.0889C94.651 29.4541 95.1719 28.9984 95.709 28.7217C96.2624 28.445 96.8239 28.3066 97.3936 28.3066C97.9632 28.3066 98.5166 28.4613 99.0537 28.7705C99.5908 29.0798 100.03 29.5518 100.372 30.1865C100.73 30.8213 100.909 31.6351 100.909 32.6279L100.934 35.2158C100.934 35.8018 100.942 36.3307 100.958 36.8027C100.991 37.2585 101.031 37.5758 101.08 37.7549L102.545 38.1211L102.472 39H97.7109L97.6377 38.1211L98.9805 37.7549C98.9967 37.6247 99.013 37.4619 99.0293 37.2666C99.0456 37.0713 99.0537 36.8271 99.0537 36.5342C99.07 36.2249 99.0781 35.8424 99.0781 35.3867L99.0537 32.7012C99.0537 32.0013 98.9398 31.4398 98.7119 31.0166C98.5003 30.5934 98.2155 30.2842 97.8574 30.0889C97.4993 29.8936 97.1169 29.7959 96.71 29.7959C96.2054 29.7959 95.7334 29.918 95.2939 30.1621C94.8545 30.4062 94.4639 30.7887 94.1221 31.3096V34.9717C94.1221 35.7204 94.1302 36.3307 94.1465 36.8027C94.179 37.2585 94.2116 37.5758 94.2441 37.7549L95.6846 38.1211L95.6113 39H90.6797ZM104.449 39L104.376 38.1211L105.768 37.7549C105.784 37.6247 105.792 37.4619 105.792 37.2666C105.808 37.0713 105.825 36.8271 105.841 36.5342C105.857 36.2249 105.865 35.8424 105.865 35.3867V32.7256C105.865 32.0094 105.743 31.4398 105.499 31.0166C105.255 30.5934 104.946 30.2842 104.571 30.0889C104.213 29.8936 103.847 29.7959 103.473 29.7959C102.919 29.7959 102.407 29.9342 101.935 30.2109C101.463 30.4876 101.039 30.9108 100.665 31.4805L100.201 30.5771C100.771 29.7959 101.373 29.2262 102.008 28.8682C102.659 28.4938 103.342 28.3066 104.059 28.3066C104.742 28.3066 105.361 28.4694 105.914 28.7949C106.467 29.1204 106.907 29.5924 107.232 30.2109C107.558 30.8294 107.721 31.5781 107.721 32.457V35.2158C107.721 35.8018 107.729 36.3307 107.745 36.8027C107.778 37.2585 107.81 37.5758 107.843 37.7549L109.356 38.1211L109.308 39H104.449ZM119.464 39.1953C118.813 39.1953 118.235 39.0651 117.73 38.8047C117.226 38.5443 116.827 38.2106 116.534 37.8037C116.257 37.3968 116.119 36.9736 116.119 36.5342C116.119 35.9808 116.298 35.5251 116.656 35.167C117.014 34.8089 117.6 34.4997 118.414 34.2393L122.125 32.9941V31.749C122.125 31.3421 122.003 30.9759 121.759 30.6504C121.515 30.3086 121.189 30.04 120.782 29.8447C120.375 29.6494 119.92 29.5518 119.415 29.5518C119.008 29.5518 118.731 29.6413 118.585 29.8203C118.438 29.9831 118.349 30.3167 118.316 30.8213L118.268 31.8467C117.682 31.9769 117.185 31.9606 116.778 31.7979C116.371 31.6188 116.168 31.334 116.168 30.9434C116.168 30.6667 116.282 30.39 116.51 30.1133C116.754 29.8366 117.071 29.5762 117.462 29.332C117.853 29.0716 118.276 28.8519 118.731 28.6729C119.187 28.4938 119.635 28.3717 120.074 28.3066C121.279 28.3066 122.239 28.624 122.955 29.2588C123.688 29.8936 124.062 30.7236 124.078 31.749L124.029 35.8506C124.029 36.1598 124.037 36.4609 124.054 36.7539C124.086 37.0469 124.127 37.2666 124.176 37.4131L125.738 37.7061V38.4629L124.542 38.9023C124.314 38.9837 124.103 39.0488 123.907 39.0977C123.712 39.1628 123.549 39.1953 123.419 39.1953C122.914 39.1953 122.589 38.9105 122.442 38.3408L122.174 37.3887H122.54C122.003 37.9909 121.482 38.4466 120.978 38.7559C120.489 39.0488 119.985 39.1953 119.464 39.1953ZM120.123 37.7549C120.497 37.7549 120.847 37.6735 121.173 37.5107C121.498 37.3317 121.816 37.0632 122.125 36.7051V34.1416L119.391 34.874C119 34.9717 118.715 35.1263 118.536 35.3379C118.373 35.5495 118.292 35.818 118.292 36.1436C118.292 36.5505 118.471 36.9248 118.829 37.2666C119.203 37.5921 119.635 37.7549 120.123 37.7549ZM143.585 24.5713L144.122 28.5264L143.048 28.6484L142.022 25.8896C141.892 25.8571 141.738 25.8408 141.559 25.8408C141.396 25.8245 141.249 25.8164 141.119 25.8164H140.24C140.077 25.8164 139.858 25.8164 139.581 25.8164C139.304 25.8164 139.052 25.8245 138.824 25.8408C138.824 25.971 138.816 26.2803 138.8 26.7686C138.8 27.2406 138.8 27.7939 138.8 28.4287C138.8 29.0635 138.8 29.6738 138.8 30.2598V33.5557C138.8 34.5973 138.808 35.5007 138.824 36.2656C138.84 37.0143 138.849 37.5026 138.849 37.7305L140.924 38.0234L140.851 39H134.625L134.576 38.0234L136.627 37.7305C136.627 37.5026 136.635 37.0143 136.651 36.2656C136.668 35.5007 136.676 34.5973 136.676 33.5557V30.2598C136.676 29.6738 136.676 29.0635 136.676 28.4287C136.676 27.7939 136.676 27.2406 136.676 26.7686C136.676 26.2803 136.668 25.971 136.651 25.8408C136.44 25.8245 136.196 25.8164 135.919 25.8164C135.659 25.8164 135.439 25.8164 135.26 25.8164H134.308C134.177 25.8164 134.031 25.8245 133.868 25.8408C133.705 25.8408 133.559 25.8571 133.429 25.8896L132.428 28.6729L131.329 28.5264L131.866 24.5713C132.062 24.5876 132.257 24.6038 132.452 24.6201C132.647 24.6201 132.843 24.6283 133.038 24.6445C133.233 24.6445 133.429 24.6527 133.624 24.6689C133.836 24.6689 134.039 24.6689 134.234 24.6689H141.217C141.412 24.6689 141.607 24.6689 141.803 24.6689C141.998 24.6527 142.193 24.6445 142.389 24.6445C142.584 24.6283 142.779 24.6201 142.975 24.6201C143.186 24.6038 143.39 24.5876 143.585 24.5713ZM149.835 39.1953C148.777 39.1953 147.849 38.9674 147.052 38.5117C146.271 38.056 145.66 37.4212 145.221 36.6074C144.781 35.7773 144.562 34.8333 144.562 33.7754C144.562 32.6686 144.806 31.7083 145.294 30.8945C145.782 30.0807 146.433 29.446 147.247 28.9902C148.061 28.5345 148.956 28.3066 149.933 28.3066C150.942 28.3066 151.821 28.5345 152.569 28.9902C153.334 29.4297 153.92 30.0563 154.327 30.8701C154.75 31.6676 154.962 32.6035 154.962 33.6777C154.962 34.7031 154.734 35.6309 154.278 36.4609C153.823 37.291 153.204 37.9583 152.423 38.4629C151.658 38.9512 150.795 39.1953 149.835 39.1953ZM150.079 38.0479C150.632 38.0479 151.113 37.8851 151.52 37.5596C151.926 37.2178 152.244 36.7539 152.472 36.168C152.7 35.5658 152.813 34.8822 152.813 34.1172C152.813 32.7174 152.521 31.5863 151.935 30.7236C151.365 29.8447 150.608 29.4053 149.664 29.4053C148.785 29.4053 148.077 29.7715 147.54 30.5039C147.019 31.2363 146.759 32.2048 146.759 33.4092C146.759 34.3206 146.897 35.1263 147.174 35.8262C147.467 36.526 147.866 37.0713 148.37 37.4619C148.875 37.8525 149.444 38.0479 150.079 38.0479ZM162.237 39.1953C161.179 39.1953 160.252 38.9674 159.454 38.5117C158.673 38.056 158.062 37.4212 157.623 36.6074C157.184 35.7773 156.964 34.8333 156.964 33.7754C156.964 32.6686 157.208 31.7083 157.696 30.8945C158.185 30.0807 158.836 29.446 159.649 28.9902C160.463 28.5345 161.358 28.3066 162.335 28.3066C163.344 28.3066 164.223 28.5345 164.972 28.9902C165.737 29.4297 166.323 30.0563 166.729 30.8701C167.153 31.6676 167.364 32.6035 167.364 33.6777C167.364 34.7031 167.136 35.6309 166.681 36.4609C166.225 37.291 165.606 37.9583 164.825 38.4629C164.06 38.9512 163.198 39.1953 162.237 39.1953ZM162.481 38.0479C163.035 38.0479 163.515 37.8851 163.922 37.5596C164.329 37.2178 164.646 36.7539 164.874 36.168C165.102 35.5658 165.216 34.8822 165.216 34.1172C165.216 32.7174 164.923 31.5863 164.337 30.7236C163.767 29.8447 163.01 29.4053 162.066 29.4053C161.188 29.4053 160.479 29.7715 159.942 30.5039C159.422 31.2363 159.161 32.2048 159.161 33.4092C159.161 34.3206 159.299 35.1263 159.576 35.8262C159.869 36.526 160.268 37.0713 160.772 37.4619C161.277 37.8525 161.847 38.0479 162.481 38.0479ZM169.049 39L169 38.0967L170.587 37.7549C170.619 37.5921 170.644 37.3236 170.66 36.9492C170.676 36.5749 170.685 36.0785 170.685 35.46C170.701 34.8415 170.709 34.0846 170.709 33.1895V30.1377C170.709 29.5192 170.701 28.8844 170.685 28.2334C170.685 27.5824 170.676 26.972 170.66 26.4023C170.66 25.8164 170.652 25.32 170.636 24.9131C170.636 24.4899 170.628 24.2132 170.611 24.083L168.805 23.8389L168.756 23.0576L172.247 22.0566L172.711 22.3984C172.695 23.082 172.678 23.7656 172.662 24.4492C172.646 25.1328 172.63 25.8896 172.613 26.7197C172.613 27.5498 172.613 28.5508 172.613 29.7227L172.589 33.6533C172.589 34.6136 172.597 35.4844 172.613 36.2656C172.646 37.0306 172.678 37.527 172.711 37.7549L174.298 38.0967L174.249 39H169.049ZM183.355 37.4863C183.046 38.0234 182.623 38.4466 182.086 38.7559C181.549 39.0488 180.987 39.1953 180.401 39.1953C179.409 39.1953 178.595 38.8942 177.96 38.292C177.325 37.6898 177.008 36.7865 177.008 35.582L177.081 29.7471H175.372V29.2344L178.521 26.3779H178.985L178.937 29.1855L178.912 35.1914C178.912 36.0378 179.091 36.6644 179.449 37.0713C179.824 37.4782 180.344 37.6816 181.012 37.6816C181.386 37.6816 181.728 37.6084 182.037 37.4619C182.363 37.3154 182.656 37.1201 182.916 36.876L183.355 37.4863ZM178.058 29.7471V28.5264H182.623V29.7471H178.058ZM183.868 39L183.819 38.0967L185.455 37.7549C185.471 37.6898 185.479 37.5758 185.479 37.4131C185.496 37.2503 185.512 36.9899 185.528 36.6318C185.545 36.2738 185.553 35.7773 185.553 35.1426V33.5312C185.553 32.8639 185.536 32.2536 185.504 31.7002C185.471 31.1468 185.431 30.7155 185.382 30.4062L183.746 30.0645V29.2588L187.213 28.3555L187.579 28.6973C187.53 29.2018 187.49 29.6982 187.457 30.1865C187.441 30.6748 187.433 31.2445 187.433 31.8955V34.9717C187.433 35.7204 187.441 36.3389 187.457 36.8271C187.49 37.3154 187.522 37.6247 187.555 37.7549L189.19 38.0967L189.142 39H183.868ZM186.505 25.5967C186.098 25.5967 185.74 25.4583 185.431 25.1816C185.138 24.9049 184.991 24.5632 184.991 24.1562C184.991 23.7493 185.138 23.4076 185.431 23.1309C185.74 22.8542 186.098 22.7158 186.505 22.7158C186.928 22.7158 187.278 22.8542 187.555 23.1309C187.831 23.4076 187.97 23.7493 187.97 24.1562C187.97 24.5632 187.831 24.9049 187.555 25.1816C187.278 25.4583 186.928 25.5967 186.505 25.5967ZM190.46 44.3711L190.411 43.4922L191.925 43.126C191.925 43.0446 191.925 42.8981 191.925 42.6865C191.941 42.4912 191.957 42.2308 191.974 41.9053C191.99 41.5798 191.998 41.1891 191.998 40.7334C192.014 40.2777 192.022 39.7487 192.022 39.1465L192.071 33.1162C192.071 32.6279 192.047 32.1315 191.998 31.627C191.965 31.1224 191.925 30.7155 191.876 30.4062L190.313 30.0645V29.2588L193.585 28.3555L194 28.7461L193.878 30.0889H193.951C194.407 29.5029 194.903 29.0635 195.44 28.7705C195.994 28.4613 196.588 28.3066 197.223 28.3066C198.118 28.3066 198.907 28.5345 199.591 28.9902C200.291 29.4297 200.836 30.04 201.227 30.8213C201.633 31.5863 201.837 32.4733 201.837 33.4824C201.837 34.5566 201.593 35.5251 201.104 36.3877C200.616 37.2503 199.949 37.9339 199.103 38.4385C198.272 38.9268 197.328 39.1709 196.271 39.1709C195.88 39.1709 195.473 39.1302 195.05 39.0488C194.627 38.9674 194.252 38.8698 193.927 38.7559V40.5869C193.927 41.2054 193.935 41.7262 193.951 42.1494C193.984 42.5889 194.008 42.9144 194.024 43.126L196.026 43.4434L195.978 44.3711H190.46ZM196.344 37.9746C196.995 37.9746 197.564 37.82 198.053 37.5107C198.557 37.2015 198.948 36.7458 199.225 36.1436C199.518 35.5413 199.672 34.8089 199.688 33.9463C199.705 33.165 199.575 32.4733 199.298 31.8711C199.037 31.2689 198.663 30.7969 198.175 30.4551C197.703 30.097 197.158 29.918 196.539 29.918C196.035 29.918 195.562 30.04 195.123 30.2842C194.684 30.512 194.285 30.8538 193.927 31.3096V37.2178C194.252 37.4619 194.627 37.6491 195.05 37.7793C195.473 37.9095 195.904 37.9746 196.344 37.9746ZM205.646 34.5566L204.84 23.7656C204.824 23.3587 204.864 23.0251 204.962 22.7646C205.076 22.5042 205.23 22.3089 205.426 22.1787C205.637 22.0322 205.865 21.959 206.109 21.959C206.37 21.959 206.598 22.0322 206.793 22.1787C206.988 22.3089 207.143 22.5042 207.257 22.7646C207.371 23.0251 207.411 23.3587 207.379 23.7656L206.573 34.5566H205.646ZM206.109 39.2441C205.816 39.2441 205.548 39.179 205.304 39.0488C205.076 38.9186 204.897 38.7396 204.767 38.5117C204.636 38.2839 204.571 38.0316 204.571 37.7549C204.571 37.4619 204.636 37.2096 204.767 36.998C204.897 36.7702 205.076 36.5911 205.304 36.4609C205.548 36.3307 205.816 36.2656 206.109 36.2656C206.402 36.2656 206.663 36.3307 206.891 36.4609C207.118 36.5911 207.298 36.7702 207.428 36.998C207.574 37.2096 207.647 37.4619 207.647 37.7549C207.647 38.1781 207.501 38.5361 207.208 38.8291C206.915 39.1058 206.549 39.2441 206.109 39.2441Z" fill="white"/>
<defs>
<filter id="filter0_d_6_19" x="58" y="84" width="121" height="122" filterUnits="userSpaceOnUse" color-interpolation-filters="sRGB">
<feFlood flood-opacity="0" result="BackgroundImageFix"/>
<feColorMatrix in="SourceAlpha" type="matrix" values="0 0 0 0 0 0 0 0 0 0 0 0 0 0 0 0 0 0 127 0" result="hardAlpha"/>
<feOffset dx="3" dy="4"/>
<feGaussianBlur stdDeviation="1.5"/>
<feComposite in2="hardAlpha" operator="out"/>
<feColorMatrix type="matrix" values="0 0 0 0 0 0 0 0 0 0 0 0 0 0 0 0 0 0 0.5 0"/>
<feBlend mode="normal" in2="BackgroundImageFix" result="effect1_dropShadow_6_19"/>
<feBlend mode="normal" in="SourceGraphic" in2="effect1_dropShadow_6_19" result="shape"/>
</filter>
</defs>
</svg>
