<svg width="279" height="60" viewBox="0 0 279 60" fill="none" xmlns="http://www.w3.org/2000/svg">
<path d="M0 8C0 3.58172 3.58172 0 8 0H254C258.418 0 262 3.58172 262 8V11.7574C262 12.553 262.316 13.3161 262.879 13.8787L276.879 27.8787C278.05 29.0503 278.05 30.9497 276.879 32.1213L262.879 46.1213C262.316 46.6839 262 47.447 262 48.2426V52C262 56.4183 258.418 60 254 60H7.99999C3.58172 60 0 56.4183 0 52V8Z" fill="#222222" fill-opacity="0.9"/>
<path d="M38.9854 39L38.9365 38.0723L40.4258 37.7305C40.4583 37.6654 40.4827 37.5026 40.499 37.2422C40.5316 36.9655 40.5479 36.5749 40.5479 36.0703C40.5641 35.5658 40.5723 34.9229 40.5723 34.1416V29.5518C40.5723 28.7542 40.5641 28.1032 40.5479 27.5986C40.5479 27.0778 40.5316 26.6872 40.499 26.4268C40.4827 26.1501 40.4583 25.9873 40.4258 25.9385L38.9365 25.5967L38.9854 24.6689H44.2344L44.3076 25.5967L42.7939 25.9385C42.7614 25.9873 42.7288 26.1501 42.6963 26.4268C42.68 26.6872 42.6637 27.0778 42.6475 27.5986C42.6475 28.1032 42.6475 28.7542 42.6475 29.5518V34.1416C42.6475 34.9229 42.6475 35.5658 42.6475 36.0703C42.6637 36.5749 42.68 36.9655 42.6963 37.2422C42.7288 37.5026 42.7614 37.6654 42.7939 37.7305L44.3076 38.0723L44.2344 39H38.9854ZM30.1963 39L30.123 38.0723L31.6367 37.7305C31.6693 37.6491 31.6855 37.4619 31.6855 37.1689C31.7018 36.876 31.71 36.4772 31.71 35.9727C31.7262 35.4681 31.7344 34.8577 31.7344 34.1416V29.5518C31.7344 28.8193 31.7262 28.2008 31.71 27.6963C31.71 27.1755 31.7018 26.7686 31.6855 26.4756C31.6855 26.1826 31.6693 26.0036 31.6367 25.9385L30.123 25.5967L30.1963 24.6689H35.3965L35.4453 25.5967L33.9561 25.9385C33.9235 25.9873 33.891 26.1501 33.8584 26.4268C33.8421 26.6872 33.8258 27.0778 33.8096 27.5986C33.8096 28.1032 33.8096 28.7542 33.8096 29.5518V34.1416C33.8096 34.9229 33.8096 35.5658 33.8096 36.0703C33.8258 36.5749 33.8421 36.9655 33.8584 37.2422C33.891 37.5026 33.9235 37.6654 33.9561 37.7305L35.4453 38.0723L35.3965 39H30.1963ZM33.5166 32.3594V30.9189C33.8421 30.9352 34.3141 30.9515 34.9326 30.9678C35.5674 30.984 36.3324 30.9922 37.2275 30.9922C38.1064 30.9922 38.8551 30.984 39.4736 30.9678C40.0921 30.9515 40.5479 30.9352 40.8408 30.9189V32.3594C40.4827 32.3268 40.0189 32.3024 39.4492 32.2861C38.8796 32.2699 38.139 32.2617 37.2275 32.2617C36.2835 32.2617 35.5186 32.2699 34.9326 32.2861C34.3467 32.3024 33.8747 32.3268 33.5166 32.3594ZM52.7109 39.1953C51.7669 39.1953 50.9124 38.9837 50.1475 38.5605C49.3988 38.1374 48.7965 37.5352 48.3408 36.7539C47.9014 35.9564 47.6816 35.0205 47.6816 33.9463C47.6816 32.7907 47.9176 31.7897 48.3896 30.9434C48.8617 30.097 49.4801 29.446 50.2451 28.9902C51.0101 28.5182 51.832 28.2904 52.7109 28.3066C53.9805 28.3229 54.9733 28.7461 55.6895 29.5762C56.4056 30.4062 56.7637 31.5781 56.7637 33.0918V33.5312H49.2686V32.457H55.1523L54.8838 32.7744V32.2617C54.8838 31.3177 54.6722 30.5934 54.249 30.0889C53.8258 29.5843 53.248 29.332 52.5156 29.332C52.0599 29.332 51.6204 29.4704 51.1973 29.7471C50.7741 30.0075 50.4323 30.4144 50.1719 30.9678C49.9115 31.5049 49.7812 32.1885 49.7812 33.0186V33.3115C49.7812 34.6462 50.1068 35.6878 50.7578 36.4365C51.4251 37.1852 52.2796 37.5596 53.3213 37.5596C53.891 37.5596 54.4036 37.4456 54.8594 37.2178C55.3151 36.9899 55.7546 36.6237 56.1777 36.1191L56.7881 36.6807C56.3324 37.527 55.7546 38.1618 55.0547 38.585C54.3548 38.9919 53.5736 39.1953 52.7109 39.1953ZM59.5762 39L59.5273 38.0967L61.1143 37.7549C61.1468 37.5921 61.1712 37.3236 61.1875 36.9492C61.2038 36.5749 61.2119 36.0785 61.2119 35.46C61.2282 34.8415 61.2363 34.0846 61.2363 33.1895V30.1377C61.2363 29.5192 61.2282 28.8844 61.2119 28.2334C61.2119 27.5824 61.2038 26.972 61.1875 26.4023C61.1875 25.8164 61.1794 25.32 61.1631 24.9131C61.1631 24.4899 61.1549 24.2132 61.1387 24.083L59.332 23.8389L59.2832 23.0576L62.7744 22.0566L63.2383 22.3984C63.222 23.082 63.2057 23.7656 63.1895 24.4492C63.1732 25.1328 63.1569 25.8896 63.1406 26.7197C63.1406 27.5498 63.1406 28.5508 63.1406 29.7227L63.1162 33.6533C63.1162 34.6136 63.1243 35.4844 63.1406 36.2656C63.1732 37.0306 63.2057 37.527 63.2383 37.7549L64.8252 38.0967L64.7764 39H59.5762ZM67.3936 39L67.3447 38.0967L68.9316 37.7549C68.9642 37.5921 68.9886 37.3236 69.0049 36.9492C69.0212 36.5749 69.0293 36.0785 69.0293 35.46C69.0456 34.8415 69.0537 34.0846 69.0537 33.1895V30.1377C69.0537 29.5192 69.0456 28.8844 69.0293 28.2334C69.0293 27.5824 69.0212 26.972 69.0049 26.4023C69.0049 25.8164 68.9967 25.32 68.9805 24.9131C68.9805 24.4899 68.9723 24.2132 68.9561 24.083L67.1494 23.8389L67.1006 23.0576L70.5918 22.0566L71.0557 22.3984C71.0394 23.082 71.0231 23.7656 71.0068 24.4492C70.9906 25.1328 70.9743 25.8896 70.958 26.7197C70.958 27.5498 70.958 28.5508 70.958 29.7227L70.9336 33.6533C70.9336 34.6136 70.9417 35.4844 70.958 36.2656C70.9906 37.0306 71.0231 37.527 71.0557 37.7549L72.6426 38.0967L72.5938 39H67.3936ZM80.8018 39.1953C79.7438 39.1953 78.8161 38.9674 78.0186 38.5117C77.2373 38.056 76.627 37.4212 76.1875 36.6074C75.748 35.7773 75.5283 34.8333 75.5283 33.7754C75.5283 32.6686 75.7725 31.7083 76.2607 30.8945C76.749 30.0807 77.4001 29.446 78.2139 28.9902C79.0277 28.5345 79.9229 28.3066 80.8994 28.3066C81.9085 28.3066 82.7874 28.5345 83.5361 28.9902C84.3011 29.4297 84.887 30.0563 85.2939 30.8701C85.7171 31.6676 85.9287 32.6035 85.9287 33.6777C85.9287 34.7031 85.7008 35.6309 85.2451 36.4609C84.7894 37.291 84.1709 37.9583 83.3896 38.4629C82.6247 38.9512 81.762 39.1953 80.8018 39.1953ZM81.0459 38.0479C81.5993 38.0479 82.0794 37.8851 82.4863 37.5596C82.8932 37.2178 83.2106 36.7539 83.4385 36.168C83.6663 35.5658 83.7803 34.8822 83.7803 34.1172C83.7803 32.7174 83.4873 31.5863 82.9014 30.7236C82.3317 29.8447 81.5749 29.4053 80.6309 29.4053C79.752 29.4053 79.0439 29.7715 78.5068 30.5039C77.986 31.2363 77.7256 32.2048 77.7256 33.4092C77.7256 34.3206 77.8639 35.1263 78.1406 35.8262C78.4336 36.526 78.8324 37.0713 79.3369 37.4619C79.8415 37.8525 80.4111 38.0479 81.0459 38.0479ZM95.3135 39L95.2646 38.0723L96.7539 37.7305C96.7865 37.6491 96.8027 37.4619 96.8027 37.1689C96.819 36.876 96.8271 36.4772 96.8271 35.9727C96.8434 35.4681 96.8516 34.8577 96.8516 34.1416V29.5518C96.8516 28.8193 96.8434 28.2008 96.8271 27.6963C96.8271 27.1755 96.819 26.7686 96.8027 26.4756C96.8027 26.1826 96.7865 26.0036 96.7539 25.9385L95.2646 25.5967L95.3135 24.6689H100.514L100.562 25.5967L99.0732 25.9385C99.0407 25.9873 99.0081 26.1501 98.9756 26.4268C98.9593 26.6872 98.943 27.0778 98.9268 27.5986C98.9268 28.1032 98.9268 28.7542 98.9268 29.5518V34.1416C98.9268 34.9229 98.9268 35.5658 98.9268 36.0703C98.943 36.5749 98.9593 36.9655 98.9756 37.2422C99.0081 37.5026 99.0407 37.6654 99.0732 37.7305L100.562 38.0723L100.514 39H95.3135ZM105.792 21.959C106.199 21.959 106.533 22.1055 106.793 22.3984C107.07 22.6914 107.208 23.1553 107.208 23.79C107.208 24.0342 107.167 24.3597 107.086 24.7666C107.021 25.1572 106.931 25.5804 106.817 26.0361C106.72 26.4756 106.614 26.915 106.5 27.3545C106.386 27.7777 106.288 28.1602 106.207 28.502H105.377C105.296 28.1602 105.198 27.7777 105.084 27.3545C104.97 26.915 104.856 26.4756 104.742 26.0361C104.645 25.5804 104.555 25.1572 104.474 24.7666C104.409 24.3597 104.376 24.0342 104.376 23.79C104.376 23.1553 104.506 22.6914 104.767 22.3984C105.043 22.1055 105.385 21.959 105.792 21.959ZM110.68 39L110.631 38.1211L112.145 37.7549C112.161 37.641 112.169 37.4945 112.169 37.3154C112.185 37.1364 112.201 36.876 112.218 36.5342C112.234 36.1924 112.242 35.7285 112.242 35.1426L112.267 33.2383C112.283 32.8965 112.275 32.5465 112.242 32.1885C112.226 31.8304 112.201 31.4967 112.169 31.1875C112.136 30.862 112.104 30.6016 112.071 30.4062L110.509 30.0645V29.2588L113.78 28.3555L114.195 28.7461L114.073 30.0645L114.146 30.0889C114.651 29.4541 115.172 28.9984 115.709 28.7217C116.262 28.445 116.824 28.3066 117.394 28.3066C117.963 28.3066 118.517 28.4613 119.054 28.7705C119.591 29.0798 120.03 29.5518 120.372 30.1865C120.73 30.8213 120.909 31.6351 120.909 32.6279L120.934 35.2158C120.934 35.8018 120.942 36.3307 120.958 36.8027C120.991 37.2585 121.031 37.5758 121.08 37.7549L122.545 38.1211L122.472 39H117.711L117.638 38.1211L118.98 37.7549C118.997 37.6247 119.013 37.4619 119.029 37.2666C119.046 37.0713 119.054 36.8271 119.054 36.5342C119.07 36.2249 119.078 35.8424 119.078 35.3867L119.054 32.7012C119.054 32.0013 118.94 31.4398 118.712 31.0166C118.5 30.5934 118.215 30.2842 117.857 30.0889C117.499 29.8936 117.117 29.7959 116.71 29.7959C116.205 29.7959 115.733 29.918 115.294 30.1621C114.854 30.4062 114.464 30.7887 114.122 31.3096V34.9717C114.122 35.7204 114.13 36.3307 114.146 36.8027C114.179 37.2585 114.212 37.5758 114.244 37.7549L115.685 38.1211L115.611 39H110.68ZM124.449 39L124.376 38.1211L125.768 37.7549C125.784 37.6247 125.792 37.4619 125.792 37.2666C125.808 37.0713 125.825 36.8271 125.841 36.5342C125.857 36.2249 125.865 35.8424 125.865 35.3867V32.7256C125.865 32.0094 125.743 31.4398 125.499 31.0166C125.255 30.5934 124.946 30.2842 124.571 30.0889C124.213 29.8936 123.847 29.7959 123.473 29.7959C122.919 29.7959 122.407 29.9342 121.935 30.2109C121.463 30.4876 121.039 30.9108 120.665 31.4805L120.201 30.5771C120.771 29.7959 121.373 29.2262 122.008 28.8682C122.659 28.4938 123.342 28.3066 124.059 28.3066C124.742 28.3066 125.361 28.4694 125.914 28.7949C126.467 29.1204 126.907 29.5924 127.232 30.2109C127.558 30.8294 127.721 31.5781 127.721 32.457V35.2158C127.721 35.8018 127.729 36.3307 127.745 36.8027C127.778 37.2585 127.81 37.5758 127.843 37.7549L129.356 38.1211L129.308 39H124.449ZM141.964 39.1953C141.313 39.1953 140.735 39.0651 140.23 38.8047C139.726 38.5443 139.327 38.2106 139.034 37.8037C138.757 37.3968 138.619 36.9736 138.619 36.5342C138.619 35.9808 138.798 35.5251 139.156 35.167C139.514 34.8089 140.1 34.4997 140.914 34.2393L144.625 32.9941V31.749C144.625 31.3421 144.503 30.9759 144.259 30.6504C144.015 30.3086 143.689 30.04 143.282 29.8447C142.875 29.6494 142.42 29.5518 141.915 29.5518C141.508 29.5518 141.231 29.6413 141.085 29.8203C140.938 29.9831 140.849 30.3167 140.816 30.8213L140.768 31.8467C140.182 31.9769 139.685 31.9606 139.278 31.7979C138.871 31.6188 138.668 31.334 138.668 30.9434C138.668 30.6667 138.782 30.39 139.01 30.1133C139.254 29.8366 139.571 29.5762 139.962 29.332C140.353 29.0716 140.776 28.8519 141.231 28.6729C141.687 28.4938 142.135 28.3717 142.574 28.3066C143.779 28.3066 144.739 28.624 145.455 29.2588C146.188 29.8936 146.562 30.7236 146.578 31.749L146.529 35.8506C146.529 36.1598 146.537 36.4609 146.554 36.7539C146.586 37.0469 146.627 37.2666 146.676 37.4131L148.238 37.7061V38.4629L147.042 38.9023C146.814 38.9837 146.603 39.0488 146.407 39.0977C146.212 39.1628 146.049 39.1953 145.919 39.1953C145.414 39.1953 145.089 38.9105 144.942 38.3408L144.674 37.3887H145.04C144.503 37.9909 143.982 38.4466 143.478 38.7559C142.989 39.0488 142.485 39.1953 141.964 39.1953ZM142.623 37.7549C142.997 37.7549 143.347 37.6735 143.673 37.5107C143.998 37.3317 144.316 37.0632 144.625 36.7051V34.1416L141.891 34.874C141.5 34.9717 141.215 35.1263 141.036 35.3379C140.873 35.5495 140.792 35.818 140.792 36.1436C140.792 36.5505 140.971 36.9248 141.329 37.2666C141.703 37.5921 142.135 37.7549 142.623 37.7549ZM168.585 24.5713L169.122 28.5264L168.048 28.6484L167.022 25.8896C166.892 25.8571 166.738 25.8408 166.559 25.8408C166.396 25.8245 166.249 25.8164 166.119 25.8164H165.24C165.077 25.8164 164.858 25.8164 164.581 25.8164C164.304 25.8164 164.052 25.8245 163.824 25.8408C163.824 25.971 163.816 26.2803 163.8 26.7686C163.8 27.2406 163.8 27.7939 163.8 28.4287C163.8 29.0635 163.8 29.6738 163.8 30.2598V33.5557C163.8 34.5973 163.808 35.5007 163.824 36.2656C163.84 37.0143 163.849 37.5026 163.849 37.7305L165.924 38.0234L165.851 39H159.625L159.576 38.0234L161.627 37.7305C161.627 37.5026 161.635 37.0143 161.651 36.2656C161.668 35.5007 161.676 34.5973 161.676 33.5557V30.2598C161.676 29.6738 161.676 29.0635 161.676 28.4287C161.676 27.7939 161.676 27.2406 161.676 26.7686C161.676 26.2803 161.668 25.971 161.651 25.8408C161.44 25.8245 161.196 25.8164 160.919 25.8164C160.659 25.8164 160.439 25.8164 160.26 25.8164H159.308C159.177 25.8164 159.031 25.8245 158.868 25.8408C158.705 25.8408 158.559 25.8571 158.429 25.8896L157.428 28.6729L156.329 28.5264L156.866 24.5713C157.062 24.5876 157.257 24.6038 157.452 24.6201C157.647 24.6201 157.843 24.6283 158.038 24.6445C158.233 24.6445 158.429 24.6527 158.624 24.6689C158.836 24.6689 159.039 24.6689 159.234 24.6689H166.217C166.412 24.6689 166.607 24.6689 166.803 24.6689C166.998 24.6527 167.193 24.6445 167.389 24.6445C167.584 24.6283 167.779 24.6201 167.975 24.6201C168.186 24.6038 168.39 24.5876 168.585 24.5713ZM176.085 39.1953C175.027 39.1953 174.099 38.9674 173.302 38.5117C172.521 38.056 171.91 37.4212 171.471 36.6074C171.031 35.7773 170.812 34.8333 170.812 33.7754C170.812 32.6686 171.056 31.7083 171.544 30.8945C172.032 30.0807 172.683 29.446 173.497 28.9902C174.311 28.5345 175.206 28.3066 176.183 28.3066C177.192 28.3066 178.071 28.5345 178.819 28.9902C179.584 29.4297 180.17 30.0563 180.577 30.8701C181 31.6676 181.212 32.6035 181.212 33.6777C181.212 34.7031 180.984 35.6309 180.528 36.4609C180.073 37.291 179.454 37.9583 178.673 38.4629C177.908 38.9512 177.045 39.1953 176.085 39.1953ZM176.329 38.0479C176.882 38.0479 177.363 37.8851 177.77 37.5596C178.176 37.2178 178.494 36.7539 178.722 36.168C178.95 35.5658 179.063 34.8822 179.063 34.1172C179.063 32.7174 178.771 31.5863 178.185 30.7236C177.615 29.8447 176.858 29.4053 175.914 29.4053C175.035 29.4053 174.327 29.7715 173.79 30.5039C173.269 31.2363 173.009 32.2048 173.009 33.4092C173.009 34.3206 173.147 35.1263 173.424 35.8262C173.717 36.526 174.116 37.0713 174.62 37.4619C175.125 37.8525 175.694 38.0479 176.329 38.0479ZM189.737 39.1953C188.679 39.1953 187.752 38.9674 186.954 38.5117C186.173 38.056 185.562 37.4212 185.123 36.6074C184.684 35.7773 184.464 34.8333 184.464 33.7754C184.464 32.6686 184.708 31.7083 185.196 30.8945C185.685 30.0807 186.336 29.446 187.149 28.9902C187.963 28.5345 188.858 28.3066 189.835 28.3066C190.844 28.3066 191.723 28.5345 192.472 28.9902C193.237 29.4297 193.823 30.0563 194.229 30.8701C194.653 31.6676 194.864 32.6035 194.864 33.6777C194.864 34.7031 194.636 35.6309 194.181 36.4609C193.725 37.291 193.106 37.9583 192.325 38.4629C191.56 38.9512 190.698 39.1953 189.737 39.1953ZM189.981 38.0479C190.535 38.0479 191.015 37.8851 191.422 37.5596C191.829 37.2178 192.146 36.7539 192.374 36.168C192.602 35.5658 192.716 34.8822 192.716 34.1172C192.716 32.7174 192.423 31.5863 191.837 30.7236C191.267 29.8447 190.51 29.4053 189.566 29.4053C188.688 29.4053 187.979 29.7715 187.442 30.5039C186.922 31.2363 186.661 32.2048 186.661 33.4092C186.661 34.3206 186.799 35.1263 187.076 35.8262C187.369 36.526 187.768 37.0713 188.272 37.4619C188.777 37.8525 189.347 38.0479 189.981 38.0479ZM197.799 39L197.75 38.0967L199.337 37.7549C199.369 37.5921 199.394 37.3236 199.41 36.9492C199.426 36.5749 199.435 36.0785 199.435 35.46C199.451 34.8415 199.459 34.0846 199.459 33.1895V30.1377C199.459 29.5192 199.451 28.8844 199.435 28.2334C199.435 27.5824 199.426 26.972 199.41 26.4023C199.41 25.8164 199.402 25.32 199.386 24.9131C199.386 24.4899 199.378 24.2132 199.361 24.083L197.555 23.8389L197.506 23.0576L200.997 22.0566L201.461 22.3984C201.445 23.082 201.428 23.7656 201.412 24.4492C201.396 25.1328 201.38 25.8896 201.363 26.7197C201.363 27.5498 201.363 28.5508 201.363 29.7227L201.339 33.6533C201.339 34.6136 201.347 35.4844 201.363 36.2656C201.396 37.0306 201.428 37.527 201.461 37.7549L203.048 38.0967L202.999 39H197.799ZM213.355 37.4863C213.046 38.0234 212.623 38.4466 212.086 38.7559C211.549 39.0488 210.987 39.1953 210.401 39.1953C209.409 39.1953 208.595 38.8942 207.96 38.292C207.325 37.6898 207.008 36.7865 207.008 35.582L207.081 29.7471H205.372V29.2344L208.521 26.3779H208.985L208.937 29.1855L208.912 35.1914C208.912 36.0378 209.091 36.6644 209.449 37.0713C209.824 37.4782 210.344 37.6816 211.012 37.6816C211.386 37.6816 211.728 37.6084 212.037 37.4619C212.363 37.3154 212.656 37.1201 212.916 36.876L213.355 37.4863ZM208.058 29.7471V28.5264H212.623V29.7471H208.058ZM215.118 39L215.069 38.0967L216.705 37.7549C216.721 37.6898 216.729 37.5758 216.729 37.4131C216.746 37.2503 216.762 36.9899 216.778 36.6318C216.795 36.2738 216.803 35.7773 216.803 35.1426V33.5312C216.803 32.8639 216.786 32.2536 216.754 31.7002C216.721 31.1468 216.681 30.7155 216.632 30.4062L214.996 30.0645V29.2588L218.463 28.3555L218.829 28.6973C218.78 29.2018 218.74 29.6982 218.707 30.1865C218.691 30.6748 218.683 31.2445 218.683 31.8955V34.9717C218.683 35.7204 218.691 36.3389 218.707 36.8271C218.74 37.3154 218.772 37.6247 218.805 37.7549L220.44 38.0967L220.392 39H215.118ZM217.755 25.5967C217.348 25.5967 216.99 25.4583 216.681 25.1816C216.388 24.9049 216.241 24.5632 216.241 24.1562C216.241 23.7493 216.388 23.4076 216.681 23.1309C216.99 22.8542 217.348 22.7158 217.755 22.7158C218.178 22.7158 218.528 22.8542 218.805 23.1309C219.081 23.4076 219.22 23.7493 219.22 24.1562C219.22 24.5632 219.081 24.9049 218.805 25.1816C218.528 25.4583 218.178 25.5967 217.755 25.5967ZM222.96 44.3711L222.911 43.4922L224.425 43.126C224.425 43.0446 224.425 42.8981 224.425 42.6865C224.441 42.4912 224.457 42.2308 224.474 41.9053C224.49 41.5798 224.498 41.1891 224.498 40.7334C224.514 40.2777 224.522 39.7487 224.522 39.1465L224.571 33.1162C224.571 32.6279 224.547 32.1315 224.498 31.627C224.465 31.1224 224.425 30.7155 224.376 30.4062L222.813 30.0645V29.2588L226.085 28.3555L226.5 28.7461L226.378 30.0889H226.451C226.907 29.5029 227.403 29.0635 227.94 28.7705C228.494 28.4613 229.088 28.3066 229.723 28.3066C230.618 28.3066 231.407 28.5345 232.091 28.9902C232.791 29.4297 233.336 30.04 233.727 30.8213C234.133 31.5863 234.337 32.4733 234.337 33.4824C234.337 34.5566 234.093 35.5251 233.604 36.3877C233.116 37.2503 232.449 37.9339 231.603 38.4385C230.772 38.9268 229.828 39.1709 228.771 39.1709C228.38 39.1709 227.973 39.1302 227.55 39.0488C227.127 38.9674 226.752 38.8698 226.427 38.7559V40.5869C226.427 41.2054 226.435 41.7262 226.451 42.1494C226.484 42.5889 226.508 42.9144 226.524 43.126L228.526 43.4434L228.478 44.3711H222.96ZM228.844 37.9746C229.495 37.9746 230.064 37.82 230.553 37.5107C231.057 37.2015 231.448 36.7458 231.725 36.1436C232.018 35.5413 232.172 34.8089 232.188 33.9463C232.205 33.165 232.075 32.4733 231.798 31.8711C231.537 31.2689 231.163 30.7969 230.675 30.4551C230.203 30.097 229.658 29.918 229.039 29.918C228.535 29.918 228.062 30.04 227.623 30.2842C227.184 30.512 226.785 30.8538 226.427 31.3096V37.2178C226.752 37.4619 227.127 37.6491 227.55 37.7793C227.973 37.9095 228.404 37.9746 228.844 37.9746ZM239.396 34.5566L238.59 23.7656C238.574 23.3587 238.614 23.0251 238.712 22.7646C238.826 22.5042 238.98 22.3089 239.176 22.1787C239.387 22.0322 239.615 21.959 239.859 21.959C240.12 21.959 240.348 22.0322 240.543 22.1787C240.738 22.3089 240.893 22.5042 241.007 22.7646C241.121 23.0251 241.161 23.3587 241.129 23.7656L240.323 34.5566H239.396ZM239.859 39.2441C239.566 39.2441 239.298 39.179 239.054 39.0488C238.826 38.9186 238.647 38.7396 238.517 38.5117C238.386 38.2839 238.321 38.0316 238.321 37.7549C238.321 37.4619 238.386 37.2096 238.517 36.998C238.647 36.7702 238.826 36.5911 239.054 36.4609C239.298 36.3307 239.566 36.2656 239.859 36.2656C240.152 36.2656 240.413 36.3307 240.641 36.4609C240.868 36.5911 241.048 36.7702 241.178 36.998C241.324 37.2096 241.397 37.4619 241.397 37.7549C241.397 38.1781 241.251 38.5361 240.958 38.8291C240.665 39.1058 240.299 39.2441 239.859 39.2441Z" fill="white"/>
</svg>
